<?xml version="1.0" encoding="utf-8"?>
<!-- Generator: Adobe Illustrator 27.9.0, SVG Export Plug-In . SVG Version: 6.00 Build 0)  -->
<svg version="1.2" baseProfile="tiny" id="g-general_map-Artboard_1-05-img"
	 xmlns="http://www.w3.org/2000/svg" xmlns:xlink="http://www.w3.org/1999/xlink" x="0px" y="0px" viewBox="0 0 4145.521 5633.08"
	 overflow="visible" xml:space="preserve">
<g>
	
		<circle fill-rule="evenodd" fill="none" stroke="#000000" stroke-width="0.5" stroke-miterlimit="10" cx="3740.215" cy="3844.871" r="278.551"/>
	<path fill="#F56C5F" d="M2389.957,3671.967l5.899-1.522l3.996-0.761l1.332-5.138c0,0,1.142-0.571,1.903-2.474
		s2.854-2.093,3.426-4.567c0.571-2.474,0.571-5.329,1.522-5.329c0.952,0,8.754-0.571,7.993-1.522
		c-0.761-0.951,4.187-2.855,5.138-1.142c0.952,1.713,3.806,5.329,5.519,3.806c1.713-1.522,4.377-1.903,5.519-1.903
		s2.093-4.948,0-5.709c-2.093-0.761-0.761-3.426-1.522-3.806c-0.761-0.38-2.093-0.38-2.093-1.522c0-1.142,1.332-2.094,0.951-3.425
		c-0.381-1.332-1.903-4.377-0.951-4.758c0.951-0.381,3.806-4.187,2.664-5.519c-1.142-1.332-1.713-2.854-1.713-3.806
		c0-0.951,1.713-3.997,2.664-4.948s0.571-3.426-0.381-2.474c-0.951,0.952-1.713,2.474-2.664,3.236
		c-0.951,0.761-1.142,1.142-2.474,0.761c-1.332-0.381-3.616-0.381-5.9-1.332c-2.283-0.951-4.758-1.903-5.328-3.235
		c-0.571-1.332-2.474-2.474-1.142-3.616c1.332-1.142,1.142-3.616-0.19-3.235c-1.332,0.38-1.903,3.045-1.903,3.045
		s-0.571,0-1.332-0.761c-0.761-0.761-2.094-1.332-3.426-1.523c-1.332-0.19-6.09-3.616-6.851-3.616s-10.276-4.377-10.276-4.377
		s-2.855-2.474-3.616-3.806c-0.761-1.332-3.426-5.709-3.997-6.28c-0.571-0.571-1.586-5.519-1.586-5.519s-2.314,1.142-1.316,2.474
		c0.998,1.332,1.316,6.661,1.316,6.661s-5.646-1.713-6.597-2.665s-7.993-4.567-8.564-4.567c-0.571,0-6.28-1.903-6.28-3.045
		s1.522-8.564-1.713-9.515c-3.235-0.951-5.709-1.522-6.661-0.381c-0.951,1.142-2.854,0-3.045-0.952
		c-0.19-0.951-2.965-3.616-3.386-3.806s-2.514-2.474-2.704-3.616c-0.19-1.142-3.045-7.613-3.045-7.613s-1.713-2.854-1.142-3.996
		c0.571-1.142,1.332-9.135,1.332-9.135s0.381-5.709,0.571-6.661c0.177-0.884,0.518-5.215,0.871-6.74
		c-0.42,0.194-0.841,0.389-1.257,0.59c-0.152,1.119-0.658,2.758-1.707,3.676c-0.792,0.693-2.302,0.046-3.651-0.813
		c-0.475,0.278-0.948,0.56-1.416,0.847c0.932,0.878,2.031,2.267,2.403,3.011c0.571,1.142-0.571,3.045,0,5.329
		c0.571,2.283,0,9.705,1.332,11.608c1.332,1.903,1.522,5.9,1.522,5.9s1.903,8.754,4.758,8.945c2.854,0.19,3.616,0.761,3.616,2.093
		s4.567,6.47,6.47,4.567c1.903-1.903,3.426-2.474,3.426-1.522c0,0.951-1.332,5.328,0,6.28c1.332,0.951,4.567,5.899,6.28,5.899
		s15.605,11.228,16.747,11.609c1.142,0.381,3.426,3.806,8.754,3.235c5.329-0.571,17.318,6.851,17.318,6.851s2.093,3.426,4.377,3.235
		c2.284-0.19,7.232,9.515,16.747,8.183c0,0,0.952,1.142,0.952,2.094c0,0.951,2.474,3.045,2.284,4.948
		c-0.19,1.903-2.664,1.142-3.045,2.474c-0.381,1.332,0.571,2.284,1.142,3.426c0.571,1.142,0,3.045,0,3.616
		c0,0.571-2.474,2.284-1.332,3.045c1.142,0.761,2.474,1.713,2.284,2.474c-0.19,0.761-1.903,3.616-2.664,3.996
		s-8.373-1.522-9.325-1.142c-0.951,0.381-8.754-1.231-9.896,1.192c-1.142,2.424-0.951,5.469-1.522,6.61
		c-0.571,1.142,0,2.854-0.761,3.235c-0.761,0.381-2.474,0.761-2.474,3.045s-2.664,2.094-2.664,2.665
		c0,0.571,1.522,4.758-0.761,5.138c-2.283,0.381-2.664,0.381-3.425,0.951c-0.761,0.571-3.806,0.952-5.519,1.332
		c-1.713,0.38-7.549,1.713-8.627,3.045c-1.079,1.332-6.407,6.1-6.407,6.1l0.768,0.024c0.406-0.012,0.811-0.028,1.215-0.046
		l4.425-4.556L2389.957,3671.967z"/>
	<circle fill="#33334D" cx="2420.245" cy="3617.053" r="18.575"/>
	
		<line fill="#FFFFFF" stroke="#000000" stroke-width="0.5" stroke-miterlimit="10" x1="2272.479" y1="4072.725" x2="2272.479" y2="3512.993"/>
</g>
<style>
#g-general_map-Artboard_1-05-img rect, #g-general_map-Artboard_1-05-img circle, #g-general_map-Artboard_1-05-img path, #g-general_map-Artboard_1-05-img line, #g-general_map-Artboard_1-05-img polyline, #g-general_map-Artboard_1-05-img polygon { vector-effect: non-scaling-stroke; }
</style>
</svg>

