<?xml version="1.0" encoding="utf-8"?>
<!-- Generator: Adobe Illustrator 27.9.0, SVG Export Plug-In . SVG Version: 6.00 Build 0)  -->
<svg version="1.2" baseProfile="tiny" id="g-general_map-Artboard_1-01-img"
	 xmlns="http://www.w3.org/2000/svg" xmlns:xlink="http://www.w3.org/1999/xlink" x="0px" y="0px" viewBox="0 0 4145.521 5633.08"
	 overflow="visible" xml:space="preserve">
<g>
	
		<circle fill-rule="evenodd" fill="none" stroke="#000000" stroke-width="0.5" stroke-miterlimit="10" cx="609.554" cy="947.412" r="389.018"/>
	<path fill="#F56C5F" d="M1346.024,774.169l5.899-1.523l3.996-0.761l1.332-5.138c0,0,1.142-0.571,1.903-2.474
		c0.761-1.903,2.854-2.093,3.425-4.567c0.571-2.474,0.571-5.329,1.522-5.329s8.754-0.571,7.993-1.522
		c-0.761-0.951,4.187-2.855,5.138-1.142s3.806,5.329,5.519,3.806c1.713-1.522,4.377-1.903,5.519-1.903s2.093-4.948,0-5.709
		c-2.093-0.761-0.761-3.425-1.522-3.806c-0.761-0.38-2.093-0.38-2.093-1.523c0-1.142,1.332-2.093,0.951-3.425
		c-0.38-1.332-1.903-4.377-0.951-4.758c0.951-0.381,3.806-4.187,2.664-5.519c-1.142-1.332-1.713-2.854-1.713-3.806
		s1.713-3.997,2.664-4.948s0.571-3.426-0.381-2.474c-0.952,0.952-1.713,2.474-2.664,3.235c-0.952,0.761-1.142,1.142-2.474,0.761
		c-1.332-0.381-3.616-0.381-5.9-1.332s-4.758-1.903-5.329-3.235c-0.571-1.332-2.474-2.474-1.142-3.616
		c1.332-1.142,1.142-3.616-0.19-3.235c-1.332,0.38-1.903,3.045-1.903,3.045s-0.571,0-1.332-0.761s-2.093-1.332-3.426-1.523
		c-1.332-0.19-6.09-3.616-6.851-3.616s-10.276-4.377-10.276-4.377s-2.855-2.474-3.616-3.806c-0.761-1.332-3.425-5.709-3.996-6.28
		c-0.571-0.571-1.586-5.519-1.586-5.519s-2.314,1.142-1.316,2.474c0.998,1.332,1.316,6.661,1.316,6.661s-5.646-1.713-6.597-2.664
		s-7.993-4.567-8.564-4.567s-6.28-1.903-6.28-3.045c0-1.142,1.522-8.564-1.713-9.515c-3.235-0.951-5.709-1.522-6.661-0.381
		c-0.952,1.142-2.855,0-3.045-0.951c-0.19-0.951-2.965-3.616-3.386-3.806c-0.42-0.19-2.514-2.474-2.704-3.616
		c-0.19-1.142-3.045-7.612-3.045-7.612s-1.713-2.854-1.142-3.996c0.571-1.142,1.332-9.135,1.332-9.135s0.381-5.709,0.571-6.661
		c0.177-0.884,0.518-5.215,0.871-6.741c-0.42,0.194-0.841,0.389-1.257,0.59c-0.152,1.119-0.658,2.758-1.707,3.676
		c-0.792,0.693-2.302,0.046-3.651-0.814c-0.475,0.278-0.948,0.56-1.416,0.847c0.932,0.879,2.031,2.267,2.403,3.011
		c0.571,1.142-0.571,3.045,0,5.329c0.571,2.284,0,9.705,1.332,11.608c1.332,1.903,1.523,5.9,1.523,5.9s1.903,8.754,4.758,8.945
		c2.855,0.19,3.616,0.761,3.616,2.093c0,1.332,4.567,6.47,6.47,4.567c1.903-1.903,3.426-2.474,3.426-1.523s-1.332,5.328,0,6.28
		c1.332,0.951,4.567,5.899,6.28,5.899s15.605,11.228,16.747,11.609s3.426,3.806,8.754,3.235c5.329-0.571,17.318,6.851,17.318,6.851
		s2.093,3.426,4.377,3.235c2.284-0.19,7.232,9.515,16.747,8.183c0,0,0.952,1.142,0.952,2.094c0,0.951,2.474,3.045,2.284,4.948
		c-0.19,1.903-2.664,1.142-3.045,2.474c-0.381,1.332,0.571,2.284,1.142,3.426c0.571,1.142,0,3.045,0,3.616
		c0,0.571-2.474,2.284-1.332,3.045c1.142,0.761,2.474,1.713,2.284,2.474c-0.19,0.761-1.903,3.616-2.664,3.996
		s-8.374-1.522-9.325-1.142c-0.951,0.381-8.754-1.231-9.896,1.192c-1.142,2.423-0.952,5.468-1.522,6.61
		c-0.571,1.142,0,2.854-0.761,3.235c-0.761,0.381-2.474,0.761-2.474,3.045s-2.664,2.093-2.664,2.664s1.522,4.758-0.761,5.138
		s-2.664,0.381-3.425,0.951c-0.761,0.571-3.806,0.952-5.519,1.332s-7.549,1.713-8.627,3.045c-1.078,1.332-6.407,6.1-6.407,6.1
		l0.768,0.024c0.406-0.012,0.811-0.028,1.215-0.046l4.424-4.556L1346.024,774.169z"/>
	<circle fill="#33334D" cx="1293.191" cy="647.879" r="18.575"/>
	
		<line fill="#FFFFFF" stroke="#000000" stroke-width="0.5" stroke-miterlimit="10" x1="1220.293" y1="629.304" x2="1220.293" y2="1296.825"/>
</g>
<style>
#g-general_map-Artboard_1-01-img rect, #g-general_map-Artboard_1-01-img circle, #g-general_map-Artboard_1-01-img path, #g-general_map-Artboard_1-01-img line, #g-general_map-Artboard_1-01-img polyline, #g-general_map-Artboard_1-01-img polygon { vector-effect: non-scaling-stroke; }
</style>
</svg>

